<svg xmlns="http://www.w3.org/2000/svg" viewBox="0 0 479.265 479.265">
  <path d="M98.632 79.565c-6.6 0-12 5.4-12 12s5.4 12 12 12 12-5.4 12-12-5.3-12-12-12zM145.532 79.565c-6.6 0-12 5.4-12 12s5.4 12 12 12 12-5.4 12-12-5.4-12-12-12zM192.432 79.565c-6.6 0-12 5.4-12 12s5.4 12 12 12 12-5.4 12-12-5.4-12-12-12zM51.832 79.565c-3.2 0-6.3 1.3-8.5 3.5s-3.5 5.3-3.5 8.5 1.3 6.3 3.5 8.5 5.3 3.5 8.5 3.5 6.3-1.3 8.5-3.5 3.5-5.3 3.5-8.5-1.3-6.3-3.5-8.5c-2.3-2.2-5.4-3.5-8.5-3.5z" />
  <circle cx="51.832" cy="138.465" r="12" />
  <path d="M51.832 173.465c-6.6 0-12 5.4-12 12s5.4 12 12 12 12-5.4 12-12-5.4-12-12-12zM51.832 361.265c-6.6 0-12 5.4-12 12s5.4 12 12 12 12-5.4 12-12-5.4-12-12-12zM51.832 314.365c-6.6 0-12 5.4-12 12s5.4 12 12 12 12-5.4 12-12c0-6.7-5.4-12-12-12zM51.832 408.265c-6.6 0-12 5.4-12 12s5.4 12 12 12 12-5.4 12-12-5.4-12-12-12zM51.832 220.465c-6.6 0-12 5.4-12 12s5.4 12 12 12 12-5.4 12-12c0-6.7-5.4-12-12-12zM51.832 267.365c-6.6 0-12 5.4-12 12s5.4 12 12 12 12-5.4 12-12-5.4-12-12-12zM51.832 455.165c-3.2 0-6.3 1.3-8.5 3.5s-3.5 5.3-3.5 8.5 1.3 6.3 3.5 8.5 5.3 3.5 8.5 3.5 6.3-1.3 8.5-3.5 3.5-5.3 3.5-8.5-1.3-6.3-3.5-8.5c-2.3-2.2-5.4-3.5-8.5-3.5zM192.432 455.165c-6.6 0-12 5.4-12 12s5.4 12 12 12 12-5.4 12-12-5.4-12-12-12zM98.632 455.165c-6.6 0-12 5.4-12 12s5.4 12 12 12 12-5.4 12-12-5.3-12-12-12zM145.532 455.165c-6.6 0-12 5.4-12 12s5.4 12 12 12 12-5.4 12-12-5.4-12-12-12zM427.432 79.565h-67.6v-67.6c0-4.5-2.5-8.7-6.6-10.7-4-2-8.9-1.6-12.5 1l-108.2 79.6c-3.1 2.3-4.9 5.8-4.9 9.7v375.7c0 6.6 5.4 12 12 12h187.8c6.6 0 12-5.4 12-12v-375.7c0-6.6-5.3-12-12-12zm-175.8 18.1l84.2-62v345.8l-84.2 61.7v-345.5zm163.8 357.5h-139.6l79.1-57.9c3.1-2.3 4.9-5.9 4.9-9.7v-284h55.6v351.6z" />
</svg>